<svg width="300" height="65" viewBox="0 0 371 96" fill="none" xmlns="http://www.w3.org/2000/svg">
<g clip-path="url(#clip0_61_291)">
<path d="M32.1523 56.4614C33.878 62.436 37.4471 67.3792 41.6998 69.6849C44.243 71.0639 46.8595 71.4051 49.265 70.6701C49.6626 70.5485 50.0565 70.395 50.4416 70.2122C50.8268 70.3955 51.2212 70.5485 51.6189 70.6706C52.4456 70.9229 53.2963 71.0476 54.1605 71.0476C55.8129 71.0476 57.5137 70.5898 59.1835 69.6849C63.4362 67.3792 67.0053 62.436 68.731 56.4614C71.406 47.1971 68.3718 39.2316 61.3519 37.0903C58.0117 36.0712 54.5861 36.6705 51.6538 38.725C51.8949 36.7829 52.6196 34.2697 54.7431 33.588C55.3274 33.4002 55.6491 32.7747 55.4614 32.1905C55.2732 31.6062 54.6466 31.2823 54.0639 31.4722C50.6007 32.5838 49.64 36.3184 49.3925 38.8537C46.4243 36.7041 42.9375 36.0509 39.532 37.0903C32.5114 39.2316 29.4772 47.1971 32.1523 56.4614ZM40.1802 39.2159C43.4944 38.2041 46.9458 39.2148 49.6453 41.9918C49.6516 41.9984 49.6611 42.0003 49.6677 42.0067C49.8693 42.2042 50.1408 42.3282 50.4406 42.3282C50.4682 42.3282 50.4964 42.3271 50.5246 42.3249C50.6265 42.3173 50.7157 42.2783 50.8075 42.2455C50.8343 42.2368 50.8615 42.2339 50.8875 42.2231C50.9789 42.1826 51.0551 42.1245 51.1312 42.0624C51.165 42.0356 51.2076 42.0232 51.238 41.9918C53.937 39.2148 57.3878 38.2041 60.703 39.2159C60.703 39.2159 60.703 39.2159 60.7036 39.2159C66.5827 41.0088 68.9507 47.6919 66.5957 55.8451C65.0322 61.2598 61.8651 65.7035 58.124 67.7313C56.1162 68.8212 54.09 69.1017 52.2682 68.5456C51.8332 68.4122 51.4019 68.2266 50.9852 67.9928C50.8165 67.8979 50.6288 67.8507 50.4416 67.8507C50.2545 67.8507 50.0668 67.8979 49.8981 67.9928C49.4814 68.2266 49.0501 68.4122 48.6156 68.5451C46.7928 69.1011 44.7665 68.819 42.7593 67.7313C39.0182 65.7035 35.8511 61.2598 34.2876 55.8451C31.9326 47.6919 34.3006 41.0088 40.1802 39.2159Z" fill="#D62B70"/>
<path d="M58.3242 45.7112C60.804 46.455 61.7799 49.3047 60.7524 52.8022C60.5794 53.3909 60.9168 54.0082 61.5054 54.1813C61.6096 54.2122 61.7154 54.2269 61.819 54.2269C62.2991 54.2269 62.7423 53.9127 62.8845 53.4283C64.2624 48.7373 62.6496 44.6886 58.9622 43.5824C58.3768 43.4056 57.7557 43.7403 57.5788 44.3278C57.4025 44.9154 57.7361 45.5349 58.3242 45.7112Z" fill="#D62B70"/>
<path d="M57.5153 14.04C57.5153 10.1579 54.3422 7 50.4416 7C46.5411 7 43.368 10.1579 43.368 14.04C43.368 17.9222 46.5411 21.0806 50.4416 21.0806C54.3422 21.0806 57.5153 17.9222 57.5153 14.04ZM45.5901 14.04C45.5901 11.3834 47.7666 9.22208 50.4416 9.22208C53.1167 9.22208 55.2932 11.3834 55.2932 14.04C55.2932 16.6972 53.1167 18.8585 50.4416 18.8585C47.7666 18.8585 45.5901 16.6972 45.5901 14.04Z" fill="#D62B70"/>
<path d="M28.9966 19.9935C27.6713 18.6676 25.9076 17.9379 24.0289 17.9379C24.0219 17.9379 24.0154 17.9379 24.0083 17.9379C22.1247 17.9434 20.3519 18.6817 19.0168 20.0168C17.6817 21.3519 16.9433 23.1248 16.9379 25.0083C16.9325 26.8946 17.6627 28.6664 18.9934 29.9966C20.3193 31.3225 22.0824 32.0516 23.9611 32.0516C23.9676 32.0516 23.9747 32.0516 23.9812 32.0516C25.8647 32.0467 27.6376 31.3084 28.9727 29.9728C30.3084 28.6377 31.0467 26.8648 31.0516 24.9812C31.057 23.0955 30.3274 21.3237 28.9966 19.9935ZM27.4017 28.4017C26.4843 29.3191 25.2675 29.8263 23.9752 29.8295C23.9703 29.8295 23.966 29.8295 23.9611 29.8295C22.6765 29.8295 21.4705 29.3315 20.5645 28.4256C19.6553 27.5163 19.1562 26.3049 19.16 25.0149C19.1638 23.7221 19.671 22.5052 20.5878 21.5879C21.5052 20.671 22.722 20.1638 24.0148 20.16C24.0192 20.16 24.024 20.16 24.0284 20.16C25.3136 20.16 26.5195 20.6586 27.4255 21.5645C28.3348 22.4738 28.8333 23.6852 28.8295 24.9752C28.8263 26.2675 28.319 27.4843 27.4017 28.4017Z" fill="#D62B70"/>
<path d="M6 51.4416C6 55.3422 9.1579 58.5153 13.04 58.5153C16.9222 58.5153 20.0806 55.3422 20.0806 51.4416C20.0806 47.5411 16.9222 44.368 13.04 44.368C9.1579 44.368 6 47.5411 6 51.4416ZM17.8585 51.4416C17.8585 54.1167 15.6972 56.2932 13.04 56.2932C10.3834 56.2932 8.22208 54.1167 8.22208 51.4416C8.22208 48.7666 10.3834 46.5901 13.04 46.5901C15.6972 46.5901 17.8585 48.7666 17.8585 51.4416Z" fill="#D62B70"/>
<path d="M24.0083 84.9454C24.0154 84.9454 24.0219 84.9454 24.0289 84.9454C25.9076 84.9454 27.6713 84.2158 28.9966 82.8899C30.3274 81.5597 31.057 79.7879 31.0516 77.9021C31.0467 76.0186 30.3084 74.2457 28.9727 72.9106C27.6376 71.575 25.8647 70.8366 23.9812 70.8317C23.9747 70.8317 23.9676 70.8317 23.9611 70.8317C22.0824 70.8317 20.3188 71.5608 18.9934 72.8867C17.6627 74.2169 16.9325 75.9887 16.9379 77.875C16.9433 79.7586 17.6817 81.5315 19.0168 82.8666C20.3519 84.2017 22.1247 84.94 24.0083 84.9454ZM20.5645 74.4578C21.4705 73.5518 22.6765 73.0538 23.9611 73.0538C23.966 73.0538 23.9703 73.0538 23.9752 73.0538C25.2675 73.0571 26.4843 73.5643 27.4017 74.4817C28.319 75.399 28.8263 76.6159 28.8295 77.9081C28.8333 79.1982 28.3348 80.4096 27.4255 81.3188C26.5195 82.2248 25.3136 82.7233 24.0284 82.7233C24.024 82.7233 24.0192 82.7233 24.0148 82.7233C22.722 82.7195 21.5052 82.2123 20.5878 81.2955C19.671 80.3781 19.1638 79.1613 19.16 77.8685C19.1562 76.5784 19.6553 75.367 20.5645 74.4578Z" fill="#D62B70"/>
<path d="M43.368 88.8433C43.368 92.7254 46.5411 95.8833 50.4416 95.8833C54.3422 95.8833 57.5153 92.7254 57.5153 88.8433C57.5153 84.9612 54.3422 81.8027 50.4416 81.8027C46.5411 81.8027 43.368 84.9612 43.368 88.8433ZM55.2932 88.8433C55.2932 91.4999 53.1167 93.6613 50.4416 93.6613C47.7666 93.6613 45.5901 91.4999 45.5901 88.8433C45.5901 86.1861 47.7666 84.0248 50.4416 84.0248C53.1167 84.0248 55.2932 86.1861 55.2932 88.8433Z" fill="#D62B70"/>
<path d="M71.8867 82.8899C73.2121 84.2158 74.9757 84.9454 76.8544 84.9454C76.8615 84.9454 76.868 84.9454 76.875 84.9454C78.7586 84.94 80.5315 84.2017 81.8666 82.8666C83.2017 81.5315 83.94 79.7586 83.9455 77.875C83.9509 75.9887 83.2207 74.2169 81.8899 72.8867C80.5597 71.5565 78.7765 70.874 76.9022 70.8317C75.0186 70.8366 73.2457 71.575 71.9106 72.9106C70.575 74.2457 69.8366 76.0186 69.8318 77.9021C69.8263 79.7879 70.556 81.5597 71.8867 82.8899ZM73.4817 74.4817C74.3991 73.5643 75.6159 73.0571 76.9081 73.0538C76.913 73.0538 76.9174 73.0538 76.9222 73.0538C78.2069 73.0538 79.4129 73.5518 80.3188 74.4578C81.2281 75.367 81.7272 76.5784 81.7234 77.8685C81.7196 79.1613 81.2123 80.3781 80.2955 81.2955C79.3781 82.2123 78.1613 82.7195 76.8685 82.7233C76.8642 82.7233 76.8593 82.7233 76.855 82.7233C75.5698 82.7233 74.3638 82.2248 73.4578 81.3188C72.5486 80.4096 72.05 79.1982 72.0538 77.9081C72.0571 76.6159 72.5643 75.399 73.4817 74.4817Z" fill="#D62B70"/>
<path d="M87.8433 44.368C83.9612 44.368 80.8027 47.5411 80.8027 51.4416C80.8027 55.3422 83.9612 58.5153 87.8433 58.5153C91.7254 58.5153 94.8833 55.3422 94.8833 51.4416C94.8833 47.5411 91.7254 44.368 87.8433 44.368ZM87.8433 56.2932C85.1861 56.2932 83.0248 54.1167 83.0248 51.4416C83.0248 48.7666 85.1861 46.5901 87.8433 46.5901C90.4999 46.5901 92.6613 48.7666 92.6613 51.4416C92.6613 54.1167 90.4999 56.2932 87.8433 56.2932Z" fill="#D62B70"/>
<path d="M76.875 17.9379C76.868 17.9379 76.8615 17.9379 76.8544 17.9379C74.9757 17.9379 73.2121 18.6676 71.8867 19.9935C70.556 21.3237 69.8263 23.0955 69.8318 24.9812C69.8366 26.8648 70.575 28.6377 71.9106 29.9728C73.2457 31.3084 75.0186 32.0467 76.9022 32.0516C76.9087 32.0516 76.9157 32.0516 76.9222 32.0516C78.8009 32.0516 80.5646 31.3225 81.8899 29.9966C83.2207 28.6664 83.9509 26.8946 83.9455 25.0083C83.94 23.1248 83.2017 21.3519 81.8666 20.0168C80.5315 18.6817 78.7586 17.9434 76.875 17.9379ZM80.3188 28.4256C79.4129 29.3315 78.2069 29.8295 76.9222 29.8295C76.9174 29.8295 76.913 29.8295 76.9081 29.8295C75.6159 29.8263 74.3991 29.3191 73.4817 28.4017C72.5643 27.4843 72.0571 26.2675 72.0538 24.9752C72.05 23.6852 72.5486 22.4738 73.4578 21.5645C74.3638 20.6586 75.5698 20.16 76.855 20.16C76.8593 20.16 76.8642 20.16 76.8685 20.16C78.1613 20.1638 79.3781 20.671 80.2955 21.5879C81.2123 22.5052 81.7196 23.7221 81.7234 25.0149C81.7272 26.3049 81.2281 27.5163 80.3188 28.4256Z" fill="#D62B70"/>
<path d="M68.0946 19.7265C68.2661 19.8225 68.4516 19.8676 68.635 19.8676C69.0245 19.8676 69.4026 19.6625 69.6061 19.2979C69.9055 18.7619 69.7135 18.0855 69.1775 17.7865C66.7308 16.4211 64.1295 15.323 61.4447 14.5239C60.8582 14.3476 60.2382 14.6834 60.0629 15.272C59.8877 15.8601 60.223 16.4786 60.811 16.6538C63.3391 17.4068 65.7901 18.4402 68.0946 19.7265Z" fill="#D62B70"/>
<path d="M32.7458 19.6039C32.9243 19.6039 33.1055 19.5611 33.2737 19.4699C35.5918 18.2156 38.0558 17.2136 40.5963 16.4921C41.1866 16.3245 41.5294 15.7104 41.3618 15.1201C41.1942 14.5294 40.5806 14.1892 39.9898 14.3547C37.2925 15.1201 34.6771 16.184 32.2158 17.5158C31.6765 17.8077 31.4758 18.482 31.7677 19.0218C31.9684 19.3934 32.3509 19.6039 32.7458 19.6039Z" fill="#D62B70"/>
<path d="M13.6628 40.2998C13.4876 40.8878 13.8229 41.5063 14.4109 41.6815C14.5167 41.713 14.6231 41.7282 14.7283 41.7282C15.2068 41.7282 15.6489 41.4157 15.7927 40.9334C16.5457 38.4054 17.5792 35.9543 18.8654 33.6498C19.1649 33.1138 18.9728 32.4373 18.4368 32.1384C17.9009 31.8384 17.2238 32.0304 16.9254 32.567C15.56 35.0136 14.4619 37.6149 13.6628 40.2998Z" fill="#D62B70"/>
<path d="M18.6088 68.4708C17.3546 66.1527 16.3526 63.6886 15.631 61.1481C15.4639 60.5573 14.852 60.2161 14.259 60.3826C13.6688 60.5503 13.3259 61.1644 13.4936 61.7546C14.259 64.4519 15.3229 67.0673 16.6547 69.5287C16.8555 69.9003 17.2379 70.1108 17.6329 70.1108C17.8113 70.1108 17.9925 70.0679 18.1607 69.9768C18.7 69.6849 18.9007 69.0106 18.6088 68.4708Z" fill="#D62B70"/>
<path d="M31.7059 84.819C34.1526 86.1845 36.7539 87.2825 39.4387 88.0816C39.5445 88.1131 39.6508 88.1283 39.7561 88.1283C40.2345 88.1283 40.6767 87.8158 40.8204 87.3335C40.9957 86.7455 40.6604 86.127 40.0723 85.9518C37.5443 85.1988 35.0933 84.1653 32.7887 82.879C32.2516 82.579 31.5762 82.7711 31.2773 83.3076C30.9779 83.8436 31.1699 84.5201 31.7059 84.819Z" fill="#D62B70"/>
<path d="M67.6097 83.1356C65.2916 84.3899 62.8275 85.3919 60.287 86.1134C59.6968 86.281 59.3539 86.8952 59.5215 87.4854C59.6604 87.9747 60.1053 88.2937 60.5897 88.2937C60.6901 88.2937 60.7921 88.2796 60.8935 88.2509C63.5908 87.4854 66.2062 86.4216 68.6676 85.0897C69.2068 84.7979 69.4075 84.1235 69.1157 83.5837C68.8238 83.0439 68.1484 82.8411 67.6097 83.1356Z" fill="#D62B70"/>
<path d="M82.4465 70.4672C82.6179 70.5632 82.8035 70.6082 82.9868 70.6082C83.3763 70.6082 83.7545 70.4032 83.9579 70.0386C85.3234 67.5919 86.4214 64.9907 87.2205 62.3058C87.3957 61.7177 87.0605 61.0993 86.4724 60.9241C85.8865 60.7483 85.2653 61.0836 85.0906 61.6722C84.3376 64.2002 83.3042 66.6512 82.0179 68.9558C81.7185 69.4918 81.9105 70.1683 82.4465 70.4672Z" fill="#D62B70"/>
<path d="M82.2745 34.1348C83.5288 36.4529 84.5308 38.917 85.2523 41.4575C85.3912 41.9469 85.836 42.2658 86.3205 42.2658C86.4209 42.2658 86.5228 42.2517 86.6243 42.223C87.2145 42.0554 87.5574 41.4412 87.3898 40.851C86.6243 38.1537 85.5604 35.5383 84.2286 33.077C83.9367 32.5372 83.2613 32.3348 82.7226 32.6289C82.1834 32.9207 81.9827 33.5951 82.2745 34.1348Z" fill="#D62B70"/>
<path d="M122.039 45.3695V47.9373H111.739V53.9574H121.325V56.5252H111.739V63.0017H122.552V65.5695H109V45.3695H122.039ZM139.329 44L139.329 65.5695H136.761V63.6294H136.704C136.209 64.3522 135.539 64.9133 134.692 65.3127C133.846 65.7122 132.947 65.9119 131.996 65.9119C129.961 65.8929 128.311 65.2176 127.046 63.8862C125.781 62.5547 125.139 60.8619 125.12 58.8076C125.12 56.7344 125.752 55.0415 127.017 53.7291C128.282 52.4167 129.942 51.7415 131.996 51.7034C132.928 51.7034 133.822 51.9031 134.678 52.3026C135.534 52.702 136.209 53.2631 136.704 53.9859H136.761V44H139.329H139.329ZM127.859 58.8076C127.859 60.1962 128.268 61.3231 129.086 62.1886C129.904 63.0541 130.979 63.4962 132.31 63.5153C133.66 63.5153 134.74 63.0825 135.548 62.2171C136.357 61.3517 136.761 60.2152 136.761 58.8076C136.761 57.4191 136.361 56.2922 135.562 55.4267C134.764 54.5612 133.67 54.119 132.281 54.1C130.95 54.1 129.88 54.5375 129.072 55.4124C128.263 56.2874 127.859 57.4192 127.859 58.8076V58.8076ZM145.777 52.0458V60.1486C145.777 61.2138 146.057 62.0412 146.618 62.6308C147.179 63.2204 147.926 63.5153 148.858 63.5153C150.056 63.5153 150.984 63.1206 151.64 62.3312C152.296 61.5419 152.624 60.472 152.624 59.1215V52.0458H155.192V65.5695H152.624V63.4867H152.567C152.206 64.2476 151.616 64.842 150.798 65.2699C149.98 65.6979 149.086 65.9119 148.116 65.9119C146.614 65.9119 145.42 65.4459 144.535 64.5139C143.651 63.5818 143.209 62.3645 143.209 60.8619V52.0458H145.777V52.0458ZM165.492 51.7319C167.641 51.7319 169.372 52.4452 170.684 53.8718L168.744 55.6407C167.812 54.6326 166.69 54.1285 165.377 54.1285C164.122 54.1285 163.105 54.5755 162.325 55.4695C161.545 56.3635 161.155 57.5142 161.155 58.9218C161.155 60.2532 161.564 61.3469 162.382 62.2028C163.2 63.0588 164.246 63.4962 165.52 63.5153C166.871 63.5153 167.964 63.0112 168.801 62.0031L170.627 63.8291C169.41 65.2176 167.698 65.9119 165.492 65.9119C163.418 65.9119 161.73 65.2652 160.427 63.9718C159.124 62.6784 158.454 60.976 158.416 58.8647C158.435 56.7153 159.105 54.9939 160.427 53.7006C161.749 52.4073 163.437 51.7509 165.492 51.7319V51.7319ZM178.245 51.7034C179.957 51.7034 181.312 52.0932 182.311 52.8731C183.309 53.6529 183.837 54.7372 183.894 56.1256V63.3725C183.894 64.0573 183.932 64.7896 184.008 65.5694H181.726C181.669 64.9608 181.64 64.276 181.64 63.5152H181.583C180.993 64.3902 180.313 65.0084 179.543 65.3697C178.773 65.7311 177.874 65.9118 176.847 65.9118C175.458 65.9118 174.332 65.5409 173.466 64.7991C172.601 64.0573 172.168 63.0777 172.168 61.8604C172.168 60.3197 172.815 59.1546 174.108 58.3653C175.401 57.576 177.227 57.1813 179.586 57.1813H181.498V56.6963C181.498 55.7833 181.198 55.0653 180.599 54.5422C180 54.019 179.215 53.7576 178.245 53.7576C177.522 53.7576 176.89 53.8669 176.348 54.0857C175.806 54.3044 175.164 54.7086 174.422 55.2983L172.881 53.7005C174.346 52.4071 176.134 51.7414 178.245 51.7033V51.7034ZM174.736 61.6608C174.736 63.1254 175.706 63.8576 177.646 63.8576C178.806 63.8576 179.733 63.5105 180.428 62.8163C181.122 62.122 181.479 61.1187 181.498 59.8062V59.0644H180.042C178.369 59.0644 177.066 59.2784 176.134 59.7064C175.202 60.1343 174.736 60.7858 174.736 61.6608ZM194.051 51.7319C196.201 51.7319 197.931 52.4452 199.244 53.8718L197.304 55.6407C196.372 54.6326 195.25 54.1285 193.937 54.1285C192.682 54.1285 191.664 54.5755 190.884 55.4695C190.104 56.3635 189.714 57.5142 189.714 58.9218C189.714 60.2532 190.123 61.3469 190.941 62.2028C191.759 63.0588 192.805 63.4962 194.08 63.5153C195.43 63.5153 196.524 63.0112 197.361 62.0031L199.187 63.8291C197.969 65.2176 196.258 65.9119 194.051 65.9119C191.978 65.9119 190.29 65.2652 188.987 63.9718C187.684 62.6784 187.014 60.976 186.976 58.8647C186.995 56.7153 187.665 54.9939 188.987 53.7006C190.309 52.4073 191.997 51.7509 194.051 51.7319V51.7319ZM202.867 45.3124C203.381 45.3124 203.823 45.4979 204.194 45.8688C204.565 46.2397 204.75 46.682 204.75 47.1955C204.75 47.7281 204.56 48.1751 204.18 48.5365C203.799 48.8979 203.362 49.0786 202.867 49.0786C202.335 49.0786 201.888 48.8979 201.526 48.5365C201.165 48.1751 200.984 47.7281 200.984 47.1955C200.984 46.6629 201.175 46.2159 201.555 45.8545C201.935 45.4931 202.373 45.3124 202.867 45.3124V45.3124ZM204.151 52.0458V65.5695H201.583V52.0458H204.151ZM214.765 51.7034C216.762 51.7034 218.455 52.393 219.843 53.7719C221.232 55.1508 221.936 56.8296 221.955 58.8076C221.955 60.8048 221.26 62.4787 219.872 63.8291C218.483 65.1795 216.781 65.8738 214.765 65.9119C212.787 65.9119 211.103 65.2271 209.715 63.8576C208.326 62.4882 207.613 60.8048 207.575 58.8076C207.575 56.8486 208.264 55.1842 209.643 53.8147C211.022 52.4452 212.73 51.7415 214.765 51.7034V51.7034ZM210.314 58.8076C210.314 60.1962 210.723 61.3231 211.541 62.1886C212.359 63.0541 213.433 63.4962 214.765 63.5153C216.115 63.5153 217.19 63.0825 217.989 62.2171C218.788 61.3517 219.197 60.2152 219.216 58.8076C219.216 57.4191 218.816 56.2922 218.017 55.4267C217.218 54.5612 216.125 54.119 214.736 54.1C213.386 54.1 212.311 54.547 211.512 55.441C210.713 56.3349 210.314 57.4571 210.314 58.8076H210.314ZM219.529 45.3695L215.278 49.478H212.91L215.878 45.3695H219.529V45.3695ZM232.254 51.7034C233.776 51.7034 234.97 52.1599 235.835 53.0729C236.701 53.9859 237.143 55.2127 237.162 56.7534V65.5695H234.594V57.4952C234.594 56.4491 234.323 55.6217 233.781 55.013C233.239 54.4043 232.483 54.1 231.513 54.1C230.314 54.1 229.387 54.4994 228.731 55.2983C228.075 56.0972 227.746 57.1624 227.746 58.4938V65.5695H225.179V52.0458H227.746V54.1285H227.804C228.165 53.3677 228.75 52.7733 229.558 52.3453C230.367 51.9174 231.265 51.7034 232.254 51.7034V51.7034ZM258.446 45.3695L267.091 65.5695H263.895L261.87 60.5766H252.255L250.257 65.5695H247.062L255.964 45.3695H258.446ZM253.225 58.18H260.871L257.105 48.9073H257.048L253.225 58.18ZM269.887 52.0458L273.938 62.4026L277.819 52.0458H280.558L275.251 65.5695H272.426L266.92 52.0458H269.887ZM288.232 51.7034C289.944 51.7034 291.299 52.0932 292.298 52.8731C293.297 53.6529 293.824 54.7372 293.882 56.1256V63.3725C293.882 64.0573 293.92 64.7896 293.996 65.5694H291.713C291.656 64.9608 291.628 64.276 291.628 63.5152H291.571C290.981 64.3902 290.301 65.0084 289.531 65.3697C288.76 65.7311 287.861 65.9118 286.834 65.9118C285.446 65.9118 284.319 65.5409 283.453 64.7991C282.588 64.0573 282.155 63.0777 282.155 61.8604C282.155 60.3197 282.802 59.1546 284.095 58.3653C285.389 57.576 287.215 57.1813 289.573 57.1813H291.485V56.6963C291.485 55.7833 291.185 55.0653 290.586 54.5422C289.987 54.019 289.202 53.7576 288.232 53.7576C287.51 53.7576 286.877 53.8669 286.335 54.0857C285.793 54.3044 285.151 54.7086 284.409 55.2983L282.869 53.7005C284.333 52.4071 286.121 51.7414 288.232 51.7033V51.7034ZM284.723 61.6608C284.723 63.1254 285.693 63.8576 287.633 63.8576C288.794 63.8576 289.721 63.5105 290.415 62.8163C291.109 62.122 291.466 61.1187 291.485 59.8062V59.0644H290.03C288.356 59.0644 287.053 59.2784 286.121 59.7064C285.189 60.1343 284.723 60.7858 284.723 61.6608ZM304.695 51.7034C306.217 51.7034 307.41 52.1599 308.275 53.0729C309.141 53.9859 309.583 55.2127 309.602 56.7534V65.5695H307.034V57.4952C307.034 56.4491 306.763 55.6217 306.221 55.013C305.679 54.4043 304.923 54.1 303.953 54.1C302.755 54.1 301.827 54.4994 301.171 55.2983C300.515 56.0972 300.187 57.1624 300.187 58.4938V65.5695H297.619V52.0458H300.187V54.1285H300.244C300.605 53.3677 301.19 52.7733 301.999 52.3453C302.807 51.9174 303.706 51.7034 304.695 51.7034V51.7034ZM323.354 52.0458V54.3283L315.622 63.3441H323.754V65.5695H312.541V63.2585L320.216 54.2712H312.798V52.0458H323.354V52.0458ZM332.113 51.7034C333.825 51.7034 335.18 52.0932 336.179 52.8731C337.177 53.6529 337.705 54.7372 337.762 56.1256V63.3725C337.762 64.0573 337.8 64.7896 337.876 65.5694H335.594C335.537 64.9608 335.508 64.276 335.508 63.5152H335.451C334.862 64.3902 334.182 65.0084 333.411 65.3697C332.641 65.7311 331.742 65.9118 330.715 65.9118C329.327 65.9118 328.2 65.5409 327.334 64.7991C326.469 64.0573 326.036 63.0777 326.036 61.8604C326.036 60.3197 326.683 59.1546 327.976 58.3653C329.27 57.576 331.096 57.1813 333.454 57.1813H335.366V56.6963C335.366 55.7833 335.066 55.0653 334.467 54.5422C333.868 54.019 333.083 53.7576 332.113 53.7576C331.39 53.7576 330.758 53.8669 330.216 54.0857C329.674 54.3044 329.032 54.7086 328.29 55.2983L326.749 53.7005C328.214 52.4071 330.002 51.7414 332.113 51.7033V51.7034ZM328.604 61.6608C328.604 63.1254 329.574 63.8576 331.514 63.8576C332.674 63.8576 333.602 63.5105 334.296 62.8163C334.99 62.122 335.347 61.1187 335.366 59.8062V59.0644H333.911C332.237 59.0644 330.934 59.2784 330.002 59.7064C329.07 60.1343 328.604 60.7858 328.604 61.6608V61.6608ZM355.052 44L355.052 65.5695H352.484V63.6294H352.427C351.933 64.3522 351.262 64.9133 350.416 65.3127C349.569 65.7122 348.671 65.9119 347.72 65.9119C345.684 65.8929 344.034 65.2176 342.77 63.8862C341.505 62.5547 340.863 60.8619 340.844 58.8076C340.844 56.7344 341.476 55.0415 342.741 53.7291C344.006 52.4167 345.665 51.7415 347.72 51.7034C348.652 51.7034 349.546 51.9031 350.402 52.3026C351.258 52.702 351.933 53.2631 352.427 53.9859H352.484V44H355.052H355.052ZM343.583 58.8076C343.583 60.1962 343.992 61.3231 344.81 62.1886C345.627 63.0541 346.702 63.4962 348.034 63.5153C349.384 63.5153 350.463 63.0825 351.272 62.2171C352.08 61.3517 352.484 60.2152 352.484 58.8076C352.484 57.4191 352.085 56.2922 351.286 55.4267C350.487 54.5612 349.394 54.119 348.005 54.1C346.674 54.1 345.604 54.5375 344.795 55.4124C343.987 56.2874 343.583 57.4192 343.583 58.8076V58.8076ZM364.353 51.7034C366.065 51.7034 367.42 52.0932 368.419 52.8731C369.418 53.6529 369.945 54.7372 370.003 56.1256V63.3725C370.003 64.0573 370.041 64.7896 370.117 65.5694H367.834C367.777 64.9608 367.749 64.276 367.749 63.5152H367.692C367.102 64.3902 366.422 65.0084 365.652 65.3697C364.881 65.7311 363.982 65.9118 362.955 65.9118C361.567 65.9118 360.44 65.5409 359.574 64.7991C358.709 64.0573 358.276 63.0777 358.276 61.8604C358.276 60.3197 358.923 59.1546 360.216 58.3653C361.51 57.576 363.336 57.1813 365.694 57.1813H367.606V56.6963C367.606 55.7833 367.306 55.0653 366.707 54.5422C366.108 54.019 365.323 53.7576 364.353 53.7576C363.631 53.7576 362.998 53.8669 362.456 54.0857C361.914 54.3044 361.272 54.7086 360.53 55.2983L358.99 53.7005C360.454 52.4071 362.242 51.7414 364.353 51.7033V51.7034ZM360.844 61.6608C360.844 63.1254 361.814 63.8576 363.754 63.8576C364.914 63.8576 365.842 63.5105 366.536 62.8163C367.23 62.122 367.587 61.1187 367.606 59.8062V59.0644H366.151C364.477 59.0644 363.174 59.2784 362.242 59.7064C361.31 60.1343 360.844 60.7858 360.844 61.6608V61.6608Z" fill="#111111"/>
</g>
<defs>
<clipPath id="clip0_61_291">
<rect width="370.117" height="95.8833" fill="white"/>
</clipPath>
</defs>
</svg>
